<svg
    xmlns="http://www.w3.org/2000/svg"
    viewBox="0 0 24 24" 
    width="24" height="24">
    <path
        d="M 0 0 L 24 0 L 24 24 L 0 24 Z"
        fill="#568EC7" />
    <path
        d="M 12.000 4.000 C 13.060 4.000 14.079 4.422 14.828 5.172 C 15.578 5.921 16.000 6.940 16.000 8.000 C 16.000 9.060 15.578 10.079 14.828 10.828 C 14.079 11.578 13.060 12.000 12.000 12.000 C 10.940 12.000 9.921 11.578 9.172 10.828 C 8.422 10.079 8.000 9.060 8.000 8.000 C 8.000 6.940 8.422 5.921 9.172 5.172 C 9.921 4.422 10.940 4.000 12.000 4.000 M 12.000 14.000 C 16.420 14.000 20.000 15.790 20.000 18.000 L 20.000 20.000 L 4.000 20.000 L 4.000 18.000 C 4.000 15.790 7.580 14.000 12.000 14.000 Z"
        fill="#FFFFFF"/>
</svg>
