<svg
    xmlns="http://www.w3.org/2000/svg"
    viewBox="0 0 1024 512"
    width="1024" height="512">
    <path
        d="M 0 0 L 1024 0 L 1024 512 L 0 512 Z"
        fill="#568EC7" />
    <path
        d="M 512 89.333 C 534.083 89.333 555.313 98.125 570.917 113.75 C 586.542 129.354 595.333 150.583 595.333 172.667 C 595.333 194.75 586.542 215.979 570.917 231.583 C 555.313 247.208 534.083 256 512 256 C 489.917 256 468.688 247.208 453.083 231.583 C 437.458 215.979 428.667 194.75 428.667 172.667 C 428.667 150.583 437.458 129.354 453.083 113.75 C 468.688 98.125 489.917 89.333 512 89.333 M 512 297.667 C 604.083 297.667 678.667 334.958 678.667 381 L 678.667 422.667 L 345.333 422.667 L 345.333 381 C 345.333 334.958 419.917 297.667 512 297.667 Z"
        fill="#FFFFFF"/>
</svg>
