<svg id="Layer_1" data-name="Layer 1" xmlns="http://www.w3.org/2000/svg" viewBox="0 0 4256.18 502.21"><defs><style>.cls-1{fill:#fff;fill-rule:evenodd;}</style></defs><title>Workplace_Logotype_Lock-up_Single-Line_White</title><path fill="#568EC7" d="M 0 0 L 0 502.21 L 4256.18 502.21 L 4256.18 0 Z" /><path class="cls-1" d="M4325.59,204.5l-60.09,5.43V508.58h60.09V411.26l61.77,97.33h63.84l-64.68-100.66,62.18-98.16h-63.84l-59.26,94.81V204.5h0ZM4045.18,414.18c0,57.22,32.55,98.58,98.9,98.58s98.9-41.35,98.9-98.58v-10c0-57.22-32.55-98.58-98.9-98.58s-98.9,41.35-98.9,98.58v10h0Zm137.71,4.17c0,26.31-10.85,47.21-38.81,47.21s-38.81-20.89-38.81-47.21V400c0-26.31,10.85-47.21,38.81-47.21s38.81,20.89,38.81,47.21v18.37h0Zm-355.52-4.17c0,57.22,32.55,98.58,98.89,98.58s98.9-41.35,98.9-98.58v-10c0-57.22-32.55-98.58-98.9-98.58s-98.89,41.35-98.89,98.58v10h0Zm137.7,4.17c0,26.31-10.86,47.21-38.81,47.21s-38.81-20.89-38.81-47.21V400c0-26.31,10.85-47.21,38.81-47.21s38.81,20.89,38.81,47.21v18.37h0Zm-157.73-15.45c0-55.55-26.71-97.33-81.78-97.33-28,0-47.16,14.2-55.92,31.75V204.5l-60.09,5.43V508.58h56.75V478.5c8.35,19.21,29.21,34.25,59.26,34.25,55.07,0,81.78-41.77,81.78-97.33V402.91h0Zm-60.09,13.78c0,28-10.85,48.87-39.64,48.87-24.62,0-38-17.55-38-45.95V398.72c0-28.4,13.35-45.94,38-45.94,28.79,0,39.64,20.88,39.64,48.86v15h0Zm-349.27,0c0,58.48,28.37,96.49,104.33,96.49,28.79,0,61.34-6.27,77.2-14.62l-10.85-41.35c-17.53,7.52-41.32,12.11-63.85,12.11-33.38,0-45.49-12.11-46.74-39.27h126.45V398.31c0-55.14-27.13-92.73-88.9-92.73-65.51,0-97.65,37.17-97.65,93.56v17.55h0Zm60.09-25.89c0-26.73,10.44-43.86,37.55-43.86,26.3,0,35.06,17.13,35.06,38.84v5h-72.61Zm-125.59-85.21c-70.53,0-102.65,38-102.65,99v9.19c0,61,32.13,99,102.65,99,23.37,0,45.49-5,57.59-13.36l-13.35-42.61a94.55,94.55,0,0,1-40.07,9.2c-32.56,0-46.73-18.8-46.73-51v-11.7c0-32.16,14.18-51,46.73-51a94.56,94.56,0,0,1,40.07,9.19l13.35-42.6c-12.1-8.36-34.22-13.37-57.59-13.37h0Zm-321.3,109.85c0,55.56,26.29,97.33,81.37,97.33,30,0,48.83-15,57.17-34.25v30.08h57.59V309.75h-57.59v30.5c-8.76-19.21-27.13-34.67-57.17-34.67-55.08,0-81.37,41.77-81.37,97.33v12.52h0Zm60.09-13.36c0-29.66,10.85-49.29,38.8-49.29,24.62,0,37.14,18,37.14,46.37V419.2c0,28.4-12.52,46.36-37.14,46.36-28,0-38.8-19.62-38.8-49.28v-14.2h0Zm-90.13-149.54c-18.78,0-24.2,8.36-24.2,26.73v30.5H3007L3002,359h-45.08V508.58h-60.09V359h-40.47V309.76h40.47V280.11c0-49.7,20-76,76-76a281.26,281.26,0,0,1,35,2.1v46.36h-26.71ZM2138.39,388.14a37,37,0,0,1,3.4-15.27,43.86,43.86,0,0,1,9.76-13.79,51.48,51.48,0,0,1,15.92-10.19,55.8,55.8,0,0,1,21.86-4,49,49,0,0,1,20.37,4,45.21,45.21,0,0,1,14.64,10.19,43,43,0,0,1,8.7,13.79,41.72,41.72,0,0,1,3,15.27h-97.63Zm119.27,61.14q-2.55,2.55-7.43,6.58a59.39,59.39,0,0,1-12.52,7.64,100.83,100.83,0,0,1-43.72,9.13,60.8,60.8,0,0,1-19.74-3.4,57.32,57.32,0,0,1-17.83-9.76,51,51,0,0,1-12.73-15.31,40,40,0,0,1-4.88-20h148.43V417a170.8,170.8,0,0,0-5-41.6,107.28,107.28,0,0,0-16.52-36.5,85.44,85.44,0,0,0-30.33-26.1q-18.89-10-46-10-22.5,0-41,8.07A97.35,97.35,0,0,0,2116.53,333a100.12,100.12,0,0,0-20.8,32.9,110.9,110.9,0,0,0-7.43,41q0,24.19,7.43,44.14a95.09,95.09,0,0,0,54.54,56.45q19.52,8.06,43.3,8.06,23.34,0,40.11-5.09t27.59-11.46q10.82-6.37,16.55-12.1l7-7-27.16-30.56h0Zm-221.52.85a61.66,61.66,0,0,1-20.8,15.49,63.6,63.6,0,0,1-27.17,5.73q-14.43,0-25-5.52a53.3,53.3,0,0,1-17.61-14.43,61,61,0,0,1-10.4-19.95,75.93,75.93,0,0,1-3.4-22.5,81.63,81.63,0,0,1,3.4-23.35,55.89,55.89,0,0,1,10.4-19.95,53.54,53.54,0,0,1,17.61-13.79q10.61-5.3,25-5.31,14.85,0,26.32,5.52a61.74,61.74,0,0,1,19.95,15.28l31.84-32.26a102.25,102.25,0,0,0-34-23.56q-20-8.69-44.14-8.7-23.78,0-43.51,8.49a102.1,102.1,0,0,0-55.6,56.67,107.64,107.64,0,0,0-7.85,41q0,23.78,7.22,43.3a94.48,94.48,0,0,0,20.8,33.53,91.49,91.49,0,0,0,33.53,21.65q19.95,7.64,45.42,7.64t44.57-8.91a107.41,107.41,0,0,0,33.11-23.77l-29.71-32.26h0Zm-241.87-11.88a27.87,27.87,0,0,1-4.07,14.43,43.85,43.85,0,0,1-10.42,11.88,51.71,51.71,0,0,1-31.85,11q-17.83,0-27-7.22t-9.13-19.95q0-12.31,9.76-21.86t34-9.55q4.67,0,11.25.21c4.38,0.15,8.59.36,12.56,0.64,4.81,0.29,9.75.57,14.89,0.85v19.53h0Zm1.2,70.24h46.43V375a70.76,70.76,0,0,0-5.81-29.08A64.6,64.6,0,0,0,1819.18,323a79.25,79.25,0,0,0-26.5-14.86,106.29,106.29,0,0,0-34.58-5.31,183.81,183.81,0,0,0-31.19,2.33,147,147,0,0,0-23.55,5.94,105.14,105.14,0,0,0-17.83,8.06q-7.64,4.46-13.58,8.7l22.92,34a151.47,151.47,0,0,1,22.5-11.89q12.73-5.51,34-5.52c12.73,0,23.1,2.83,31,8.49s11.92,13.44,11.92,23.35v4.67c-5.15-.28-10.65-0.56-15.74-0.85-4.53-.28-9.22-0.49-14-0.64s-9.21-.21-13.17-0.21a128,128,0,0,0-35.66,4.67,79.07,79.07,0,0,0-27.59,13.79,63,63,0,0,0-17.83,22.5q-6.37,13.37-6.37,30.35,0,16.55,6.15,28.86a58.36,58.36,0,0,0,16.13,20.16,68.86,68.86,0,0,0,22.07,11.67,80.61,80.61,0,0,0,24.41,3.82q20.37,0,36.93-7.64c11-5.09,19.24-11,24.62-17.51l1.27,18.57h0Zm-225.16,0h50.2V225.32h-50.2V508.49h0ZM1377.89,400.89a47.71,47.71,0,0,1,3.56-17.62,58.31,58.31,0,0,1,10.17-16.77A53.33,53.33,0,0,1,1407.53,354a44.23,44.23,0,0,1,20.79-4.88q14.42,0,24.19,4.88a44,44,0,0,1,15.92,13.16,54,54,0,0,1,8.91,19.31,98,98,0,0,1,2.76,23.77,69.56,69.56,0,0,1-3.82,22.92A60.65,60.65,0,0,1,1465,452.89a56.85,56.85,0,0,1-18,14,53.15,53.15,0,0,1-24.15,5.31c-20.1,0-35.3-4.1-44.95-12.31v-59h0Zm-49.55,192.54h49.55V504.88c3.86,1.42,7.1,2.76,10.36,4a93.87,93.87,0,0,0,10.59,3.4,98.81,98.81,0,0,0,12.72,2.33,142.23,142.23,0,0,0,16.76.85,110.59,110.59,0,0,0,41.38-8.06q20.15-8.06,37.14-28.44a111,111,0,0,0,17-28.86q6.78-16.55,6.79-39.9a135.77,135.77,0,0,0-5.52-38.63,103.7,103.7,0,0,0-16.55-33.32,83.27,83.27,0,0,0-27.8-23.56q-16.77-8.91-39.69-8.91a90.07,90.07,0,0,0-22.28,2.55,93.61,93.61,0,0,0-17.83,6.37,69.6,69.6,0,0,0-13.58,8.49,86.57,86.57,0,0,0-9.55,8.91l-1.27-22.5h-48.2V593.44h0Zm-217.52-85H1161V438.24l21.6-21.33,57.68,91.57h59.85L1216.94,383l74.7-73.33h-59L1161,380.09V225.32h-50.2V508.49h0Zm-162.18,0h50.2V401.31a47.1,47.1,0,0,1,14.81-35.23,46.48,46.48,0,0,1,16.12-9.76,56.7,56.7,0,0,1,19.52-3.4,80.65,80.65,0,0,1,12.52.85,46.12,46.12,0,0,1,10.4,3l10.19-47.12a62.13,62.13,0,0,0-11.67-3,89.3,89.3,0,0,0-12.95-.85,73.72,73.72,0,0,0-21.86,3,80,80,0,0,0-16.77,7.22,67,67,0,0,0-12.52,9.34,98.66,98.66,0,0,0-8.7,9.33l-1.27-25h-48V508.49h0Zm-171.86-42a53.41,53.41,0,0,1-17.62-15.07A66,66,0,0,1,748.76,431a74.53,74.53,0,0,1-3.4-22.07,75.36,75.36,0,0,1,3.4-21.86,63.17,63.17,0,0,1,10.4-20.37,54.56,54.56,0,0,1,17.62-14.86q10.61-5.73,25-5.73t25,5.73a54.62,54.62,0,0,1,17.61,14.86,63.31,63.31,0,0,1,10.4,20.37,75.58,75.58,0,0,1,3.4,21.86,74.75,74.75,0,0,1-3.4,22.07,66.15,66.15,0,0,1-10.4,20.37,53.46,53.46,0,0,1-17.61,15.07q-10.61,5.73-25,5.73t-25-5.73h0Zm-52.21,17.4A101.63,101.63,0,0,0,758.31,507q19.74,8.49,43.51,8.49T845.33,507a101.63,101.63,0,0,0,33.74-23.13A109.78,109.78,0,0,0,900.93,368a104.46,104.46,0,0,0-21.86-33.74,103.39,103.39,0,0,0-33.74-22.92q-19.74-8.49-43.51-8.49t-43.51,8.49A102.1,102.1,0,0,0,702.71,368a108.93,108.93,0,0,0,21.86,115.88h0ZM621.4,495.66c-6.59,7.87-18.61,20.08-37.59,20.08-26.8,0-35.45-19.26-43.58-39.63L500,377.19,459.88,476.1C453,493,445.65,515.78,416.28,515.78S379.46,493,372.62,476.1L305,309.7h57l54.25,137,40.43-99.83c6.41-15.8,14-39.66,43.22-39.66s36.88,23.87,43.31,39.66l44,108.08A169.15,169.15,0,0,0,446.13,192.52a199.6,199.6,0,1,0,.14,399.19,201.3,201.3,0,0,0,53.95-7.38v53a252.94,252.94,0,0,1-53.95,5.86A251.1,251.1,0,1,1,446.12,141C568,141,666.75,239.79,666.75,361.64a219.66,219.66,0,0,1-45.36,134h0ZM2592,309.82h25.79l65.4,169.46,61.18-169.46h24.24l-86.19,228.77a223.1,223.1,0,0,1-10,21,47.94,47.94,0,0,1-10.19,13.09,33.72,33.72,0,0,1-13.08,6.94q-7.52,2.12-19,2.12-7.31-.38-11.37-0.57a23.81,23.81,0,0,1-7.11-1.35V559.39c2.82,0.52,5.57,1,8.27,1.35a58.71,58.71,0,0,0,8.26.57q8.09,0,13.29-2.3a28,28,0,0,0,9-6.36,36.8,36.8,0,0,0,6.55-9.82q2.67-5.78,5.76-12.71l8.48-22.33-79.28-198h0Zm-190.84-76.26h24.23v114h0.77a57.4,57.4,0,0,1,11-18.87A69.64,69.64,0,0,1,2453.49,315a72.08,72.08,0,0,1,20-8.27A88.29,88.29,0,0,1,2495,304q22.7,0,39.44,8.47a81.17,81.17,0,0,1,27.89,22.92,97.76,97.76,0,0,1,16.55,33.51,153.1,153.1,0,0,1,0,80.5,97.67,97.67,0,0,1-16.55,33.51,78.89,78.89,0,0,1-27.89,22.72q-16.74,8.29-39.44,8.28-24.25,0-43.29-11.17a63.87,63.87,0,0,1-27.52-32h-0.76v37.74h-22.31v-275h0Zm158.91,175.63a131.13,131.13,0,0,0-3.65-30.62,84.94,84.94,0,0,0-11.54-27.16,64,64,0,0,0-20.2-19.45q-12.32-7.51-29.63-7.51-19.25,0-32.53,7.51A64.55,64.55,0,0,0,2441,351.41,80.07,80.07,0,0,0,2429,378.57a130.19,130.19,0,0,0,0,61.24A80,80,0,0,0,2441,467a64.24,64.24,0,0,0,21.54,19.45q13.29,7.5,32.53,7.51,17.3,0,29.63-7.51a63.66,63.66,0,0,0,20.2-19.45,84.89,84.89,0,0,0,11.54-27.15,131.08,131.08,0,0,0,3.65-30.63h0Z" transform="translate(-195.02 -141.01)"/></svg>